<svg xmlns="http://www.w3.org/2000/svg" version="1.1"  viewBox=" 47 25 6 50">
<path d="m49.926 29.523h0.066407c1.4062 0 2.8125 0.14453 4.1797 0.42969 0.078125 0.015625 0.15234 0.023437 0.23047 0.023437 0.51953 0 0.98828-0.36328 1.0977-0.89453 0.12891-0.60547-0.26172-1.2031-0.87109-1.3281-1.5156-0.31641-3.0742-0.47656-4.6484-0.47656h-0.054688c-0.62109 0-1.1211 0.50391-1.1211 1.125-0.003907 0.61719 0.5 1.1211 1.1211 1.1211z"/>
 <path d="m39.25 69.758c0.38672 0 0.76562-0.20312 0.97266-0.5625 0.30859-0.53516 0.125-1.2266-0.41016-1.5352-1.2305-0.71094-2.3945-1.5547-3.4531-2.5078-0.46094-0.41406-1.1719-0.37891-1.5859 0.085937-0.41406 0.46094-0.375 1.1719 0.085937 1.5859 1.1758 1.0586 2.4648 1.9922 3.832 2.7812 0.17578 0.10547 0.36719 0.15234 0.55859 0.15234z"/>
 <path d="m68.031 38.133c-0.53516 0.3125-0.71875 1-0.40234 1.5352 0.71875 1.2305 1.3086 2.5391 1.7539 3.8906 0.15625 0.47266 0.59375 0.77344 1.0664 0.77344 0.11719 0 0.23438-0.019531 0.35156-0.058593 0.58984-0.19531 0.91016-0.82813 0.71484-1.418-0.49219-1.5-1.1484-2.9531-1.9453-4.3203-0.3125-0.53516-1-0.71484-1.5391-0.40234z"/>
 <path d="m70.824 55.527c0.078125 0.015625 0.15625 0.023437 0.23438 0.023437 0.51953 0 0.98438-0.36328 1.0977-0.89062 0.32422-1.5391 0.48828-3.125 0.48828-4.7227v-0.078125c0-0.62109-0.50391-1.125-1.1211-1.125-0.61719 0-1.1211 0.50391-1.1211 1.125v0.089844c0 1.4336-0.14844 2.8594-0.44141 4.2461-0.13281 0.60938 0.25781 1.207 0.86328 1.332z"/>
 <path d="m60.133 32.219c1.2344 0.70703 2.3945 1.5508 3.457 2.5 0.21484 0.19141 0.48047 0.28516 0.74609 0.28516 0.30859 0 0.61328-0.125 0.83594-0.375 0.41406-0.46484 0.375-1.1719-0.089844-1.5859-1.1797-1.0547-2.4688-1.9883-3.8359-2.7734-0.53516-0.30859-1.2227-0.12109-1.5312 0.41406-0.30469 0.53906-0.11719 1.2266 0.41797 1.5352z"/>
 <path d="m39.176 32.438c0.19141 0 0.38672-0.050781 0.5625-0.15234 1.2305-0.71875 2.5391-1.3047 3.8906-1.75 0.58984-0.19141 0.91016-0.82812 0.71875-1.418-0.19141-0.58984-0.82812-0.91016-1.418-0.71875-1.5 0.49219-2.9531 1.1445-4.3203 1.9414-0.53516 0.3125-0.71875 1-0.40625 1.5352 0.20703 0.35938 0.58594 0.5625 0.97266 0.5625z"/>
 <path d="m50.012 72.629c0.62109 0 1.1133-0.50391 1.1133-1.125s-0.51562-1.1211-1.1328-1.1211c-1.4219 0-2.8438-0.14844-4.2227-0.4375-0.60938-0.12891-1.2031 0.26172-1.3281 0.86719-0.12891 0.60547 0.26172 1.2031 0.86719 1.332 1.5312 0.32031 3.1055 0.48438 4.6836 0.48438l0.019531-0.003906z"/>
 <path d="m69.203 59.75c-0.53516-0.3125-1.2227-0.12891-1.5312 0.41016-0.71094 1.2305-1.5547 2.3945-2.5078 3.4531-0.41406 0.46094-0.37891 1.1719 0.082032 1.5859 0.21484 0.19531 0.48438 0.28906 0.75 0.28906 0.30859 0 0.61328-0.125 0.83594-0.37109 1.0586-1.1758 1.9922-2.4648 2.7812-3.832 0.3125-0.53906 0.12891-1.2227-0.41016-1.5352z"/>
 <path d="m27.816 45.285c-0.32031 1.5234-0.48047 3.0938-0.48047 4.6641v0.046875c0 0.62109 0.50391 1.1016 1.1211 1.1016 0.62109 0 1.1211-0.52734 1.1211-1.1445 0-1.4141 0.14453-2.832 0.43359-4.2031 0.12891-0.60547-0.26172-1.2031-0.86719-1.3281-0.60156-0.13281-1.1992 0.25781-1.3281 0.86328z"/>
 <path d="m61.738 68.051c-0.3125-0.53516-0.99609-0.72266-1.5312-0.41016-1.2305 0.71484-2.5391 1.3008-3.8906 1.7383-0.58984 0.19141-0.91016 0.82422-0.71875 1.418 0.15234 0.47656 0.59375 0.77344 1.0664 0.77344 0.11328 0 0.23047-0.019531 0.34766-0.054687 1.5-0.48828 2.9531-1.1406 4.3242-1.9336 0.53125-0.30859 0.71484-0.99609 0.40234-1.5312z"/>
 <path d="m33.117 34.82c-1.0547 1.1797-1.9883 2.4688-2.7734 3.8359-0.30859 0.53906-0.125 1.2266 0.41406 1.5352 0.17578 0.10156 0.36719 0.14844 0.55859 0.14844 0.39062 0 0.76562-0.20312 0.97266-0.5625 0.70703-1.2305 1.5508-2.3945 2.5-3.457 0.41406-0.46094 0.375-1.1719-0.085937-1.5859s-1.1719-0.375-1.5859 0.085937z"/>
 <path id="world" d="m64.535 49.949c0-3.3555-1.1484-6.4375-3.0625-8.9023-0.023437-0.03125-0.035156-0.070313-0.0625-0.10156-0.011718-0.015624-0.027344-0.023437-0.039062-0.035156-2.4023-3.0234-5.9727-5.0742-10.023-5.4531-0.035156-0.003906-0.074218-0.003906-0.10938-0.007812-0.41016-0.035157-0.82422-0.0625-1.2461-0.0625-8.0195 0-14.547 6.5312-14.547 14.559 0 2.875 0.84766 5.5547 2.293 7.8125 0.046875 0.10156 0.10156 0.19531 0.17188 0.28125 2.6133 3.8945 7.0547 6.4648 12.082 6.4648 8.0195 0.007813 14.543-6.5234 14.543-14.555zm-9.1211 8.2578 2.3945-2.3945c0.35547 0.18359 0.75 0.33594 1.1758 0.45312l-2.8008 2.8008c-0.23828-0.30469-0.49609-0.59375-0.76953-0.85938zm-0.92187-0.83594c-0.054688-0.046875-0.11328-0.09375-0.16797-0.14062l2.3008-2.3086c0.035156 0.039063 0.0625 0.085937 0.10156 0.125 0.23438 0.23047 0.51172 0.42969 0.80859 0.60547l-2.3438 2.3438c-0.23047-0.21094-0.46484-0.42188-0.69922-0.625zm-16.047-7.4219c0-0.44531 0.03125-0.88281 0.078126-1.3125 0.54297-0.011719 1.0742-0.11719 1.5859-0.29688l-1.6602 1.6602c0-0.015625-0.003907-0.03125-0.003907-0.050781zm2.4453-1.9688c0.14844-0.082031 0.29688-0.16016 0.44141-0.26172 0.57422-0.39844 1.0117-0.89844 1.3984-1.3398 0.35156-0.40234 0.68359-0.78125 1.0234-0.97266 0.27344-0.15234 0.51172-0.21484 0.62109-0.17188 0.085938 0.035156 0.24219 0.19141 0.41406 0.48828l-6.1602 6.1602c-0.082031-0.48437-0.13281-0.98047-0.15234-1.4844zm4.043-1.9844c0.074218 0.16797 0.14844 0.36719 0.22266 0.60547 0.066406 0.21875 0.14453 0.40234 0.21875 0.59375l-6.3359 6.3359c-0.14062-0.42188-0.25391-0.85547-0.34375-1.2969zm0.55859 1.5117c0.18359 0.40625 0.39453 0.73047 0.61328 1.0156l-6.4688 6.4688c-0.18359-0.37109-0.34375-0.75-0.48828-1.1445zm6.3516-5.8242c-0.039062-0.15625-0.070312-0.28516-0.10156-0.42188l2.1484-2.1484c0.39453 0.14062 0.78125 0.29297 1.1562 0.47656l-3.0469 3.0391c-0.039062-0.36328-0.089844-0.69141-0.15625-0.94531zm-0.34375-2.2539 0.77344-0.77344c0.44531 0.089844 0.88281 0.19531 1.3086 0.33203l-1.9219 1.9219c-0.15625-0.69141-0.21484-1.125-0.16016-1.4805zm0.53516 3.5938 3.2852-3.2891c0.35547 0.1875 0.71094 0.37891 1.0391 0.59766l-4.3086 4.3086c0.027344-0.57031 0.019531-1.1211-0.015625-1.6172zm-0.007812 2.0664 4.5742-4.5742c0.3125 0.22266 0.62891 0.44141 0.91797 0.69141-0.011719 0.019531-0.019531 0.042969-0.03125 0.0625l-5.7617 5.7617c0.15625-0.61719 0.25391-1.2852 0.30078-1.9414zm-3.2383 4.8828-4.3984 4.3984c-0.46484 0.13281-0.89844 0.30078-1.3047 0.46094-0.19531 0.078125-0.39453 0.15234-0.59375 0.22656-0.22656 0.082031-0.4375 0.14844-0.64063 0.21484l5.625-5.625c0.44922 0.20703 0.89844 0.30078 1.3125 0.32422zm0.44922-0.027344c0.60156-0.078124 1.1562-0.38281 1.5859-0.90625 0.30469-0.375 0.54297-0.86328 0.72656-1.4023l5.5664-5.5703c-0.23828 0.64062-0.38281 1.3633-0.43359 2.0742l-10.008 10.004c-0.62891-0.0625-1.1953-0.015625-1.7227 0.089844zm7.4297-5.3633c-0.015625 0.55859 0.019531 1.082 0.10156 1.5391l-8.4961 8.4961c-0.36328-0.17969-0.77734-0.32031-1.2305-0.41016zm0.17188 1.8906c0.035156 0.14844 0.074218 0.29688 0.11719 0.42188 0.13281 0.35156-0.027343 0.80078-0.32812 1.4297l-7.0586 7.0586c-0.09375-0.058593-0.18359-0.10937-0.27734-0.17187-0.22656-0.14453-0.48047-0.29688-0.74609-0.44531zm-0.61719 2.6719c-0.34766 0.70312-0.66406 1.4844-0.73047 2.3711l-4.3203 4.3203c-0.074219-0.003907-0.16016-0.007813-0.23047-0.007813-0.26172-0.003906-0.48828-0.003906-0.62109-0.054687-0.16016-0.058594-0.32422-0.14453-0.49219-0.23828zm-0.74219 2.8047c0.011719 0.5 0.089843 0.96875 0.23047 1.4062l-2.8477 2.8477c-0.21875-0.10547-0.44141-0.19531-0.67188-0.25391-0.21875-0.054688-0.42578-0.078125-0.61719-0.09375zm0.33594 1.7227c0.15234 0.37109 0.36719 0.71094 0.61719 1.0195l-2.3438 2.3438c-0.30469-0.25391-0.625-0.48438-0.96094-0.67969zm3.5078 2.6836c0.078125 0.019531 0.15234 0.042969 0.23047 0.0625-0.82031 1.2148-1.8672 2.2617-3.0742 3.0898-0.039063-0.0625-0.074219-0.12891-0.11328-0.19141zm2.2109-6.4062c0 1.2773-0.21484 2.5039-0.60156 3.6523-1.2812-0.09375-1.8594-0.44922-2.0977-0.6875-0.16406-0.16406-0.38281-0.45703-0.375-1.1172 0.007812-0.46094 0.30469-1.0508 0.62109-1.6758 0.58594-1.1562 1.3125-2.5977 0.68359-4.2852-0.16797-0.45313-0.14844-1.3398-0.027344-2.0547 1.1328 1.7891 1.7969 3.9023 1.7969 6.168zm-9.5977-11.375-0.14453 0.14453c0.03125-0.050781 0.0625-0.10156 0.097656-0.15625 0.015625 0.003906 0.03125 0.007812 0.046875 0.011719zm-3.3203-0.09375c-0.24609 0.9375-0.15234 2.0508 0.31641 3.9258 0.30859 1.2344 0.085937 3.5859-0.28516 4.4727-0.21875-0.14453-0.42188-0.47266-0.62891-1.1758-0.49609-1.6562-1.3633-2.7812-2.5117-3.2461-0.6875-0.28125-1.8047-0.44922-3.207 0.32812-0.80469 0.44531-1.3516 1.0703-1.832 1.625-0.29688 0.33984-0.57422 0.66016-0.84375 0.84375-0.078125 0.054688-0.15625 0.089844-0.23438 0.13281 1.5977-3.707 5.0781-6.4102 9.2266-6.9062zm-8.8398 16.801 6.5156-6.5156c0.28516 0.32031 0.58984 0.55859 0.90234 0.73438l-5.9336 5.9336c-0.48047 0.12109-0.90625 0.19531-1.3047 0.21484-0.066406-0.11719-0.11328-0.24609-0.17969-0.36719zm10.215 6.2305c-3.0703 0-5.8555-1.2148-7.9258-3.1758 0.50781-0.13281 0.99219-0.29297 1.4414-0.45313 0.22656-0.082031 0.44922-0.16797 0.66797-0.25391 0.82812-0.32422 1.4844-0.58203 2.2266-0.49609 0.39062 0.046876 0.78125 0.29688 1.2773 0.60938 0.45703 0.28906 0.97266 0.62109 1.6094 0.85547 0.625 0.23047 1.1836 0.23047 1.6328 0.23438 0.23047 0.003907 0.42969 0.003907 0.55469 0.03125 0.25391 0.078125 0.82813 0.57812 1.0977 0.81641 0.42188 0.36719 0.88672 0.77734 1.2031 1.1797-1.1875 0.41406-2.457 0.65234-3.7852 0.65234z"/>

 <path d="m33.695 58.797c0 4.4922-6.7422 4.4922-6.7422 0 0-4.4961 6.7422-4.4961 6.7422 0"/>
 <style>
    path { fill: #000; }
    @media (prefers-color-scheme: dark) {
        path { fill: #FFF; }
    }
    #world { fill: #00ca51; }
</style>
 </svg>